# xmcd
#
# Track frame offsets:
#	150
#	12518
#	22252
#	32789
#	44823
#	59051
#	69493
#	81227
#	94430
#	105345
#	115693
#	126728
#	137716
#	151345
#	163203
#	174831
#	186055
#	202786
#	213940
#	225143
#	236315
#	247784
#	257429
#	270039
#	278645
#	288185
#	297384
#	306732
#	319804
#	334227
#	344324
#
# Disc length: 4726 seconds
#
# Revision: 0
# Processed by: cddbd v1.5.2PL0 Copyright (c) Steve Scherf et al.
# Submitted via: audiograbber 1.83.01
#
DISCID=c212741f
DTITLE=Various Artist - Doo Wop Revival (Disc1)
DYEAR=2014
DGENRE=R&B
TTITLE0=The 5 Royales - Dedicated To The One I Love
TTITLE1=The Drifters - I Count The Tears
TTITLE2=Don Covay And The Goodtimers - Pony Time
TTITLE3=The Coasters - Wait A Minute
TTITLE4=Hank Ballard And The Midnighters - Let's Go Again
TTITLE5=The Larks - It's Unbelievable
TTITLE6=The Vibrations - The Watusi
TTITLE7=Rochell And The Candles With Johnny Wyatt - Once Upon A Time
TTITLE8=The Pentagons - To Be Loved
TTITLE9=The Marcels - Blue Moon
TTITLE10=James Brown And The Famous Flames - Bewildered
TTITLE11=The Flamingos - Kokomo
TTITLE12=Shep And The Limelites - Daddy's Home
TTITLE13=The Drifters - Some Kind Of Wonderful
TTITLE14=The Miracles - Ain't It, Baby
TTITLE15=The Edsels - Rama Lama Ding Dong
TTITLE16=Hank Ballard And The Midnighters - The Continental Walk
TTITLE17=The Harptones - What Will I Tell My Heart
TTITLE18=The Dukays - The Girl's A Devil
TTITLE19=The New Yorkers - Miss Fine
TTITLE20=The Students - I'm So Young
TTITLE21=The Velvets - Tonight (Could Be The Night)
TTITLE22=James Brown And The Famous Flames - I Don't Mind
TTITLE23=The Cleftones - Heart And Soul
TTITLE24=Gladys Knight And The Pips - Every Beat Of My Heart
TTITLE25=The Marathons - Peanut Butter
TTITLE26=The Delacardos - Hold Back The Tears
TTITLE27=The Coasters - Little Egypt (Ying-Yang)
TTITLE28=The Spinners - That's What Girls Are Made For
TTITLE29=The Chanters - No, No, No
TTITLE30=The Drifters - Please Stay
EXTD=
EXTT0=
EXTT1=
EXTT2=
EXTT3=
EXTT4=
EXTT5=
EXTT6=
EXTT7=
EXTT8=
EXTT9=
EXTT10=
EXTT11=
EXTT12=
EXTT13=
EXTT14=
EXTT15=
EXTT16=
EXTT17=
EXTT18=
EXTT19=
EXTT20=
EXTT21=
EXTT22=
EXTT23=
EXTT24=
EXTT25=
EXTT26=
EXTT27=
EXTT28=
EXTT29=
EXTT30=
PLAYORDER=
